<?xml version="1.0" standalone="no"?>
<!DOCTYPE svg PUBLIC "-//W3C//DTD SVG 20010904//EN"
 "http://www.w3.org/TR/2001/REC-SVG-20010904/DTD/svg10.dtd">
<svg version="1.0" xmlns="http://www.w3.org/2000/svg"
 width="427.000000pt" height="427.000000pt" viewBox="0 0 427.000000 427.000000"
 preserveAspectRatio="xMidYMid meet">
<metadata>
Created by potrace 1.11, written by Peter Selinger 2001-2013
</metadata>
<g transform="translate(0.000000,427.000000) scale(0.100000,-0.100000)"
fill="#000000" stroke="none">
<path d="M435 4216 c-188 -70 -333 -239 -381 -443 -14 -61 -16 -231 -16 -1598
0 -1161 2 -1544 12 -1589 19 -94 46 -155 106 -242 76 -108 178 -185 311 -231
78 -27 79 -28 380 -30 288 -3 305 -2 360 19 135 50 217 154 229 288 3 36 6
241 7 456 l2 390 25 38 c14 21 43 47 65 59 39 20 52 21 515 22 467 2 476 2
530 24 102 42 165 100 213 201 31 64 32 68 35 237 3 134 1 183 -12 225 -31
109 -114 196 -221 233 -44 15 -104 17 -541 19 l-490 1 -41 27 c-74 49 -81 78
-81 324 0 158 3 224 13 247 16 39 60 82 98 96 19 8 315 11 923 11 l896 0 29
29 c33 33 35 47 15 95 -11 26 -22 36 -48 41 -18 5 -432 8 -919 8 -822 0 -889
-1 -940 -18 -104 -34 -179 -107 -219 -212 -16 -43 -19 -80 -20 -288 -1 -256 5
-295 56 -377 31 -48 103 -107 162 -133 45 -19 73 -20 552 -25 358 -4 511 -8
525 -17 31 -17 73 -65 84 -95 16 -43 12 -305 -5 -347 -19 -47 -59 -88 -109
-114 -39 -20 -55 -20 -515 -22 -465 -2 -476 -2 -532 -24 -79 -31 -148 -96
-184 -173 l-29 -63 -3 -439 c-3 -403 -4 -441 -21 -475 -48 -93 -71 -99 -396
-96 -148 1 -283 5 -300 10 -165 44 -301 186 -335 348 -7 36 -10 515 -8 1592
l3 1540 24 55 c54 122 148 213 270 262 l56 23 1530 2 c966 2 1550 -1 1583 -7
126 -23 256 -119 313 -231 58 -115 55 -44 53 -1694 -1 -836 -4 -1533 -8 -1550
-4 -16 -22 -62 -41 -101 -56 -115 -156 -197 -289 -236 -31 -9 -277 -12 -996
-13 -525 -1 -967 -5 -982 -8 -29 -8 -58 -51 -58 -87 0 -12 13 -35 29 -51 l30
-29 968 0 c769 1 979 4 1023 14 130 32 230 86 315 172 77 79 122 155 161 274
17 52 18 143 19 1610 2 1682 4 1613 -51 1737 -65 149 -200 276 -350 333 -54
20 -70 20 -1687 19 l-1632 0 -60 -23z"/>
</g>
</svg>
